<?xml version="1.0" encoding="UTF-8" standalone="no"?><svg xmlns="http://www.w3.org/2000/svg" xmlns:xlink="http://www.w3.org/1999/xlink" contentStyleType="text/css" height="504px" preserveAspectRatio="none" style="width:369px;height:504px;background:#FFFFFF;" version="1.1" viewBox="0 0 369 504" width="369px" zoomAndPan="magnify"><defs/><g><line style="stroke:#181818;stroke-width:0.5;stroke-dasharray:5.0,5.0;" x1="46" x2="46" y1="67.4883" y2="426.2832"/><line style="stroke:#181818;stroke-width:0.5;stroke-dasharray:5.0,5.0;" x1="129" x2="129" y1="67.4883" y2="426.2832"/><line style="stroke:#181818;stroke-width:0.5;stroke-dasharray:5.0,5.0;" x1="336.5" x2="336.5" y1="67.4883" y2="426.2832"/><text fill="#000000" font-family="sans-serif" font-size="14" lengthAdjust="spacing" textLength="77" x="5" y="64.5352">PostgresQL</text><path d="M28.5,15 C28.5,5 46.5,5 46.5,5 C46.5,5 64.5,5 64.5,15 L64.5,41 C64.5,51 46.5,51 46.5,51 C46.5,51 28.5,51 28.5,41 L28.5,15 " fill="#E2E2F0" style="stroke:#181818;stroke-width:1.5;"/><path d="M28.5,15 C28.5,25 46.5,25 46.5,25 C46.5,25 64.5,25 64.5,15 " fill="none" style="stroke:#181818;stroke-width:1.5;"/><text fill="#000000" font-family="sans-serif" font-size="14" lengthAdjust="spacing" textLength="77" x="5" y="438.8184">PostgresQL</text><path d="M28.5,451.7715 C28.5,441.7715 46.5,441.7715 46.5,441.7715 C46.5,441.7715 64.5,441.7715 64.5,451.7715 L64.5,477.7715 C64.5,487.7715 46.5,487.7715 46.5,487.7715 C46.5,487.7715 28.5,487.7715 28.5,477.7715 L28.5,451.7715 " fill="#E2E2F0" style="stroke:#181818;stroke-width:1.5;"/><path d="M28.5,451.7715 C28.5,461.7715 46.5,461.7715 46.5,461.7715 C46.5,461.7715 64.5,461.7715 64.5,451.7715 " fill="none" style="stroke:#181818;stroke-width:1.5;"/><rect fill="#E2E2F0" height="30.4883" rx="2.5" ry="2.5" style="stroke:#181818;stroke-width:0.5;" width="57" x="101" y="36"/><text fill="#000000" font-family="sans-serif" font-size="14" lengthAdjust="spacing" textLength="43" x="108" y="56.5352">Server</text><rect fill="#E2E2F0" height="30.4883" rx="2.5" ry="2.5" style="stroke:#181818;stroke-width:0.5;" width="57" x="101" y="425.2832"/><text fill="#000000" font-family="sans-serif" font-size="14" lengthAdjust="spacing" textLength="43" x="108" y="445.8184">Server</text><rect fill="#E2E2F0" height="30.4883" rx="2.5" ry="2.5" style="stroke:#181818;stroke-width:0.5;" width="54" x="309.5" y="36"/><text fill="#000000" font-family="sans-serif" font-size="14" lengthAdjust="spacing" textLength="40" x="316.5" y="56.5352">Client</text><rect fill="#E2E2F0" height="30.4883" rx="2.5" ry="2.5" style="stroke:#181818;stroke-width:0.5;" width="54" x="309.5" y="425.2832"/><text fill="#000000" font-family="sans-serif" font-size="14" lengthAdjust="spacing" textLength="40" x="316.5" y="445.8184">Client</text><polygon fill="#181818" points="140.5,94.7988,130.5,98.7988,140.5,102.7988,136.5,98.7988" style="stroke:#181818;stroke-width:1.0;"/><line style="stroke:#181818;stroke-width:1.0;" x1="134.5" x2="335.5" y1="98.7988" y2="98.7988"/><text fill="#000000" font-family="sans-serif" font-size="13" lengthAdjust="spacing" textLength="183" x="146.5" y="94.0566">GET https://automata.games</text><polygon fill="#181818" points="324.5,124.1094,334.5,128.1094,324.5,132.1094,328.5,128.1094" style="stroke:#181818;stroke-width:1.0;"/><line style="stroke:#181818;stroke-width:1.0;" x1="129.5" x2="330.5" y1="128.1094" y2="128.1094"/><text fill="#000000" font-family="sans-serif" font-size="13" lengthAdjust="spacing" textLength="166" x="136.5" y="123.3672">200 text/html (homepage)</text><polygon fill="#181818" points="140.5,178.4199,130.5,182.4199,140.5,186.4199,136.5,182.4199" style="stroke:#181818;stroke-width:1.0;"/><line style="stroke:#181818;stroke-width:1.0;" x1="134.5" x2="335.5" y1="182.4199" y2="182.4199"/><text fill="#000000" font-family="sans-serif" font-size="13" lengthAdjust="spacing" textLength="91" x="146.5" y="177.6777">GET /main.css</text><polygon fill="#181818" points="324.5,207.7305,334.5,211.7305,324.5,215.7305,328.5,211.7305" style="stroke:#181818;stroke-width:1.0;"/><line style="stroke:#181818;stroke-width:1.0;" x1="129.5" x2="330.5" y1="211.7305" y2="211.7305"/><text fill="#000000" font-family="sans-serif" font-size="13" lengthAdjust="spacing" textLength="81" x="136.5" y="206.9883">200 text/css</text><polygon fill="#181818" points="140.5,262.041,130.5,266.041,140.5,270.041,136.5,266.041" style="stroke:#181818;stroke-width:1.0;"/><line style="stroke:#181818;stroke-width:1.0;" x1="134.5" x2="335.5" y1="266.041" y2="266.041"/><text fill="#000000" font-family="sans-serif" font-size="13" lengthAdjust="spacing" textLength="67" x="146.5" y="261.2988">GET /login</text><polygon fill="#181818" points="324.5,291.3516,334.5,295.3516,324.5,299.3516,328.5,295.3516" style="stroke:#181818;stroke-width:1.0;"/><line style="stroke:#181818;stroke-width:1.0;" x1="129.5" x2="330.5" y1="295.3516" y2="295.3516"/><text fill="#000000" font-family="sans-serif" font-size="13" lengthAdjust="spacing" textLength="162" x="136.5" y="290.6094">200 text/html Login page</text><polygon fill="#181818" points="140.5,345.6621,130.5,349.6621,140.5,353.6621,136.5,349.6621" style="stroke:#181818;stroke-width:1.0;"/><line style="stroke:#181818;stroke-width:1.0;" x1="134.5" x2="335.5" y1="349.6621" y2="349.6621"/><text fill="#000000" font-family="sans-serif" font-size="13" lengthAdjust="spacing" textLength="148" x="146.5" y="344.9199">POST /login (form data)</text><polygon fill="#181818" points="57.5,374.9727,47.5,378.9727,57.5,382.9727,53.5,378.9727" style="stroke:#181818;stroke-width:1.0;"/><polygon fill="#181818" points="117.5,374.9727,127.5,378.9727,117.5,382.9727,121.5,378.9727" style="stroke:#181818;stroke-width:1.0;"/><line style="stroke:#181818;stroke-width:1.0;" x1="51.5" x2="123.5" y1="378.9727" y2="378.9727"/><text fill="#000000" font-family="sans-serif" font-size="13" lengthAdjust="spacing" textLength="59" x="63.5" y="374.2305">Find User</text><polygon fill="#181818" points="324.5,404.2832,334.5,408.2832,324.5,412.2832,328.5,408.2832" style="stroke:#181818;stroke-width:1.0;"/><line style="stroke:#181818;stroke-width:1.0;" x1="129.5" x2="330.5" y1="408.2832" y2="408.2832"/><text fill="#000000" font-family="sans-serif" font-size="13" lengthAdjust="spacing" textLength="160" x="136.5" y="403.541">200 text/html Some Page</text><!--MD5=[1d68bac810bcf77ed5e5a50da298c49f]
@startuml
database PostgresQL as pg
participant Server as s
participant Client as c

c -> s: GET https://automata.games
s -> c: 200 text/html (homepage)
|||
c -> s: GET /main.css
s -> c: 200 text/css
|||
c -> s: GET /login
s -> c: 200 text/html Login page
|||
c -> s: POST /login (form data)
s <-> pg: Find User
s -> c: 200 text/html Some Page
@enduml

PlantUML version 1.2022.7(Mon Aug 22 10:01:30 PDT 2022)
(GPL source distribution)
Java Runtime: OpenJDK Runtime Environment
JVM: OpenJDK 64-Bit Server VM
Default Encoding: UTF-8
Language: en
Country: US
--></g></svg>