<?xml version="1.0" encoding="UTF-8" standalone="no"?><svg xmlns="http://www.w3.org/2000/svg" xmlns:xlink="http://www.w3.org/1999/xlink" contentStyleType="text/css" height="421px" preserveAspectRatio="none" style="width:480px;height:421px;background:#FFFFFF;" version="1.1" viewBox="0 0 480 421" width="480px" zoomAndPan="magnify"><defs/><g><rect fill="none" height="26.4883" id="_title" style="stroke:none;stroke-width:1.0;" width="361" x="60.75" y="10"/><text fill="#000000" font-family="sans-serif" font-size="14" font-weight="bold" lengthAdjust="spacing" textLength="351" x="65.75" y="28.5352">Rails Server Client Interaction with InertiaJS SPA</text><line style="stroke:#181818;stroke-width:0.5;stroke-dasharray:5.0,5.0;" x1="33" x2="33" y1="73.9766" y2="385.7715"/><line style="stroke:#181818;stroke-width:0.5;stroke-dasharray:5.0,5.0;" x1="148.5" x2="148.5" y1="73.9766" y2="385.7715"/><rect fill="#E2E2F0" height="30.4883" rx="2.5" ry="2.5" style="stroke:#181818;stroke-width:0.5;" width="57" x="5" y="42.4883"/><text fill="#000000" font-family="sans-serif" font-size="14" lengthAdjust="spacing" textLength="43" x="12" y="63.0234">Server</text><rect fill="#E2E2F0" height="30.4883" rx="2.5" ry="2.5" style="stroke:#181818;stroke-width:0.5;" width="57" x="5" y="384.7715"/><text fill="#000000" font-family="sans-serif" font-size="14" lengthAdjust="spacing" textLength="43" x="12" y="405.3066">Server</text><rect fill="#E2E2F0" height="30.4883" rx="2.5" ry="2.5" style="stroke:#181818;stroke-width:0.5;" width="54" x="121.5" y="42.4883"/><text fill="#000000" font-family="sans-serif" font-size="14" lengthAdjust="spacing" textLength="40" x="128.5" y="63.0234">Client</text><rect fill="#E2E2F0" height="30.4883" rx="2.5" ry="2.5" style="stroke:#181818;stroke-width:0.5;" width="54" x="121.5" y="384.7715"/><text fill="#000000" font-family="sans-serif" font-size="14" lengthAdjust="spacing" textLength="40" x="128.5" y="405.3066">Client</text><polygon fill="#181818" points="44.5,101.2871,34.5,105.2871,44.5,109.2871,40.5,105.2871" style="stroke:#181818;stroke-width:1.0;"/><line style="stroke:#181818;stroke-width:1.0;" x1="38.5" x2="147.5" y1="105.2871" y2="105.2871"/><text fill="#000000" font-family="sans-serif" font-size="13" lengthAdjust="spacing" textLength="35" x="50.5" y="100.5449">GET /</text><polygon fill="#181818" points="136.5,130.5977,146.5,134.5977,136.5,138.5977,140.5,134.5977" style="stroke:#181818;stroke-width:1.0;"/><line style="stroke:#181818;stroke-width:1.0;" x1="33.5" x2="142.5" y1="134.5977" y2="134.5977"/><text fill="#000000" font-family="sans-serif" font-size="13" lengthAdjust="spacing" textLength="89" x="40.5" y="129.8555">200 text/html</text><polygon fill="#181818" points="44.5,184.9082,34.5,188.9082,44.5,192.9082,40.5,188.9082" style="stroke:#181818;stroke-width:1.0;"/><polygon fill="#181818" points="136.5,184.9082,146.5,188.9082,136.5,192.9082,140.5,188.9082" style="stroke:#181818;stroke-width:1.0;"/><line style="stroke:#181818;stroke-width:1.0;" x1="38.5" x2="142.5" y1="188.9082" y2="188.9082"/><text fill="#000000" font-family="sans-serif" font-size="13" lengthAdjust="spacing" textLength="91" x="50.5" y="184.166">GET /main.css</text><polygon fill="#181818" points="44.5,217.2188,34.5,221.2188,44.5,225.2188,40.5,221.2188" style="stroke:#181818;stroke-width:1.0;"/><polygon fill="#181818" points="136.5,217.2188,146.5,221.2188,136.5,225.2188,140.5,221.2188" style="stroke:#181818;stroke-width:1.0;"/><line style="stroke:#181818;stroke-width:1.0;" x1="38.5" x2="142.5" y1="221.2188" y2="221.2188"/><text fill="#000000" font-family="sans-serif" font-size="13" lengthAdjust="spacing" textLength="73" x="50.5" y="216.4766">GET /app.js</text><path d="M153,201.9082 L153,226.9082 L279,226.9082 L279,211.9082 L269,201.9082 L153,201.9082 " fill="#FEFFDD" style="stroke:#181818;stroke-width:0.5;"/><path d="M269,201.9082 L269,211.9082 L279,211.9082 L269,201.9082 " fill="#FEFFDD" style="stroke:#181818;stroke-width:0.5;"/><text fill="#000000" font-family="sans-serif" font-size="13" lengthAdjust="spacing" textLength="105" x="159" y="219.4766">JS App initializes</text><polygon fill="#181818" points="44.5,252.5293,34.5,256.5293,44.5,260.5293,40.5,256.5293" style="stroke:#181818;stroke-width:1.0;"/><line style="stroke:#181818;stroke-width:1.0;" x1="38.5" x2="147.5" y1="256.5293" y2="256.5293"/><text fill="#000000" font-family="sans-serif" font-size="13" lengthAdjust="spacing" textLength="86" x="50.5" y="251.7871">200 /settings</text><path d="M153,237.2188 L153,262.2188 L446,262.2188 L446,247.2188 L436,237.2188 L153,237.2188 " fill="#FEFFDD" style="stroke:#181818;stroke-width:0.5;"/><path d="M436,237.2188 L436,247.2188 L446,247.2188 L436,237.2188 " fill="#FEFFDD" style="stroke:#181818;stroke-width:0.5;"/><text fill="#000000" font-family="sans-serif" font-size="13" lengthAdjust="spacing" textLength="272" x="159" y="254.7871">Navigate to settings page with button click</text><polygon fill="#181818" points="136.5,303.1504,146.5,307.1504,136.5,311.1504,140.5,307.1504" style="stroke:#181818;stroke-width:1.0;"/><line style="stroke:#181818;stroke-width:1.0;" x1="33.5" x2="142.5" y1="307.1504" y2="307.1504"/><text fill="#000000" font-family="sans-serif" font-size="13" lengthAdjust="spacing" textLength="87" x="40.5" y="302.4082">304 text/json</text><path d="M153,272.5293 L153,327.5293 L473,327.5293 L473,282.5293 L463,272.5293 L153,272.5293 " fill="#FEFFDD" style="stroke:#181818;stroke-width:0.5;"/><path d="M463,272.5293 L463,282.5293 L473,282.5293 L463,272.5293 " fill="#FEFFDD" style="stroke:#181818;stroke-width:0.5;"/><text fill="#000000" font-family="sans-serif" font-size="13" lengthAdjust="spacing" textLength="242" x="159" y="290.0977">304 response does not re-render page</text><text fill="#000000" font-family="sans-serif" font-size="13" lengthAdjust="spacing" textLength="299" x="159" y="305.4082">Body includes name of front end page to render</text><text fill="#000000" font-family="sans-serif" font-size="13" lengthAdjust="spacing" textLength="152" x="159" y="320.7188">And any date we needed</text><line style="stroke:#181818;stroke-width:1.0;" x1="148.5" x2="190.5" y1="354.7715" y2="354.7715"/><line style="stroke:#181818;stroke-width:1.0;" x1="190.5" x2="190.5" y1="354.7715" y2="367.7715"/><line style="stroke:#181818;stroke-width:1.0;" x1="149.5" x2="190.5" y1="367.7715" y2="367.7715"/><polygon fill="#181818" points="159.5,363.7715,149.5,367.7715,159.5,371.7715,155.5,367.7715" style="stroke:#181818;stroke-width:1.0;"/><text fill="#000000" font-family="sans-serif" font-size="13" lengthAdjust="spacing" textLength="125" x="155.5" y="350.0293">Render components</text><!--MD5=[f9fdc7102188db1272db7fe2f15aa004]
@startuml inertiajs
title Rails Server Client Interaction with InertiaJS SPA
participant Server as s
participant Client as c

c -> s: GET /
s -> c: 200 text/html
|||
c <-> s: GET /main.css
c <-> s: GET /app.js
note right
JS App initializes
end note

c -> s: 200 /settings
note right
Navigate to settings page with button click
end note

s -> c: 304 text/json
note right
304 response does not re-render page
Body includes name of front end page to render
And any date we needed
end note

c -> c: Render components

@enduml

PlantUML version 1.2022.7(Mon Aug 22 10:01:30 PDT 2022)
(GPL source distribution)
Java Runtime: OpenJDK Runtime Environment
JVM: OpenJDK 64-Bit Server VM
Default Encoding: UTF-8
Language: en
Country: US
--></g></svg>